<svg width="42" height="150" viewBox="0 0 42 150" fill="none" xmlns="http://www.w3.org/2000/svg">
<path d="M42 0V150L21.0002 132.862L0 150V0H42Z" fill="#1B0760"/>
<path d="M14 12.3103L29.0756 12.3103L29.0756 18.2581C29.0756 19.4015 28.8573 20.3757 28.4205 21.1805C27.9886 21.9853 27.3875 22.5987 26.617 23.0208C25.8515 23.4477 24.9681 23.6612 23.967 23.6612C22.9659 23.6612 22.0825 23.4453 21.317 23.0134C20.5514 22.5815 19.9552 21.9558 19.5282 21.1363C19.1013 20.3217 18.8878 19.3353 18.8878 18.1771L18.8878 14.3861L21.4421 14.3861L21.4421 17.6618C21.4421 18.2753 21.5476 18.7807 21.7587 19.1782C21.9746 19.5806 22.2715 19.88 22.6494 20.0763C23.0321 20.2775 23.4713 20.3781 23.967 20.3781C24.4676 20.3781 24.9043 20.2775 25.2773 20.0763C25.6552 19.88 25.9471 19.5806 26.1533 19.1782C26.3643 18.7758 26.4698 18.2655 26.4698 17.6471L26.4698 15.4977L14 15.4977L14 12.3103ZM13.7792 30.5991C13.7792 29.4556 14.0221 28.4668 14.5079 27.6325C14.9987 26.8032 15.6808 26.1627 16.5543 25.7113C17.4327 25.2598 18.451 25.034 19.6092 25.034C20.7772 25.034 21.7979 25.2598 22.6714 25.7113C23.5499 26.1627 24.232 26.8032 24.7178 27.6325C25.2086 28.4668 25.4539 29.4556 25.4539 30.5991C25.4539 31.7425 25.2086 32.7289 24.7178 33.5582C24.232 34.3925 23.5499 35.0354 22.6714 35.4869C21.7979 35.9384 20.7772 36.1641 19.6092 36.1641C18.451 36.1641 17.4327 35.9384 16.5543 35.4869C15.6808 35.0354 14.9987 34.3925 14.5079 33.5582C14.0221 32.7289 13.7792 31.7425 13.7792 30.5991ZM16.2083 30.6138C16.2083 31.134 16.3556 31.5683 16.65 31.9167C16.9494 32.2651 17.3567 32.5277 17.872 32.7044C18.3872 32.8859 18.9737 32.9767 19.6313 32.9767C20.2889 32.9767 20.8753 32.8859 21.3906 32.7044C21.9059 32.5277 22.3132 32.2651 22.6125 31.9167C22.9119 31.5683 23.0616 31.134 23.0616 30.6138C23.0616 30.0887 22.9119 29.647 22.6125 29.2888C22.3132 28.9354 21.9059 28.668 21.3906 28.4864C20.8753 28.3097 20.2889 28.2214 19.6313 28.2214C18.9737 28.2214 18.3872 28.3097 17.872 28.4864C17.3567 28.668 16.9494 28.9354 16.65 29.2888C16.3556 29.647 16.2083 30.0887 16.2083 30.6138ZM9.75998 38.2031L25.3067 38.2031L25.3067 41.2948L23.4075 41.2948L23.4075 41.4347C23.7118 41.5721 24.021 41.7708 24.3351 42.0309C24.654 42.2959 24.919 42.6395 25.1301 43.0615C25.346 43.4884 25.4539 44.0184 25.4539 44.6515C25.4539 45.4759 25.238 46.2366 24.8062 46.9335C24.3792 47.6303 23.7339 48.1873 22.8702 48.6044C22.0114 49.0216 20.9342 49.2301 19.6386 49.2301C18.3774 49.2301 17.3125 49.0265 16.4439 48.6192C15.5802 48.2168 14.925 47.6671 14.4785 46.9703C14.0368 46.2783 13.816 45.5029 13.816 44.6441C13.816 44.0356 13.9166 43.5179 14.1178 43.0909C14.319 42.6689 14.5717 42.3229 14.876 42.053C15.1851 41.7831 15.4968 41.577 15.8108 41.4347L15.8108 41.339L9.75998 41.339L9.75998 38.2031ZM19.6534 41.2727C18.981 41.2727 18.3946 41.366 17.894 41.5525C17.3935 41.7389 17.0033 42.0088 16.7236 42.3622C16.4488 42.7155 16.3114 43.1449 16.3114 43.6504C16.3114 44.1608 16.4513 44.5926 16.731 44.9459C17.0156 45.2993 17.4082 45.5667 17.9088 45.7483C18.4142 45.9348 18.9958 46.028 19.6534 46.028C20.3061 46.028 20.8802 45.9372 21.3759 45.7557C21.8715 45.5741 22.2592 45.3066 22.5389 44.9533C22.8187 44.6 22.9585 44.1657 22.9585 43.6504C22.9585 43.14 22.8236 42.7082 22.5537 42.3548C22.2837 42.0064 21.901 41.7389 21.4053 41.5525C20.9097 41.366 20.3257 41.2727 19.6534 41.2727ZM18.8142 58.5714L25.3067 58.5714L25.3067 61.7073L14 61.7073L14 58.6966L16.0538 58.6966L16.0538 58.5788C15.3913 58.3236 14.8588 57.8991 14.4564 57.3053C14.054 56.7164 13.8528 55.9975 13.8528 55.1485C13.8528 54.3928 14.0245 53.7278 14.3681 53.1536C14.7116 52.5795 15.1999 52.1304 15.8329 51.8065C16.466 51.4876 17.2242 51.3256 18.1075 51.3207L25.3067 51.3207L25.3067 54.4566L18.667 54.4566C17.9996 54.4615 17.472 54.6406 17.0843 54.9939C16.6966 55.3472 16.5028 55.8208 16.5028 56.4146C16.5028 56.7925 16.5887 57.1458 16.7604 57.4746C16.9371 57.8034 17.1972 58.0684 17.5407 58.2696C17.8842 58.4757 18.3087 58.5763 18.8142 58.5714ZM29.0756 67.3514L14 67.3514L14 64.2156L29.0756 64.2156L29.0756 67.3514ZM13.7865 73.0876C13.7865 72.3662 13.9117 71.7234 14.1619 71.159C14.4171 70.5946 14.7925 70.1481 15.2882 69.8193C15.7888 69.4954 16.412 69.3334 17.1579 69.3334C17.7861 69.3334 18.3136 69.4488 18.7406 69.6794C19.1675 69.9101 19.511 70.2241 19.7711 70.6216C20.0312 71.0191 20.2275 71.4706 20.36 71.9761C20.4925 72.4865 20.5858 73.0214 20.6398 73.5808C20.7085 74.2384 20.7723 74.7684 20.8311 75.1708C20.8949 75.5732 20.9882 75.8652 21.1109 76.0468C21.2336 76.2284 21.4151 76.3192 21.6556 76.3192L21.6998 76.3192C22.166 76.3192 22.5267 76.1719 22.7819 75.8775C23.037 75.588 23.1646 75.1757 23.1646 74.6408C23.1646 74.0765 23.0395 73.6274 22.7892 73.2937C22.5438 72.96 22.2347 72.7392 21.8617 72.6312L22.0973 69.7309C22.7843 69.8782 23.3781 70.1677 23.8787 70.5996C24.3841 71.0314 24.7718 71.5884 25.0417 72.2705C25.3165 72.9576 25.4539 73.7526 25.4539 74.6555C25.4539 75.2837 25.3803 75.8849 25.2331 76.459C25.0859 77.0381 24.8577 77.5509 24.5485 77.9975C24.2394 78.449 23.8419 78.8048 23.356 79.0649C22.8751 79.325 22.2985 79.455 21.6261 79.455L14 79.455L14 76.4811L15.5679 76.4811L15.5679 76.3928C15.2146 76.2112 14.903 75.9683 14.6331 75.664C14.3681 75.3598 14.1595 74.9942 14.0074 74.5672C13.8601 74.1403 13.7865 73.6471 13.7865 73.0876ZM15.9507 73.9857C15.9507 74.447 16.0415 74.8543 16.2231 75.2076C16.4095 75.561 16.6598 75.8382 16.9739 76.0394C17.288 76.2407 17.6438 76.3413 18.0413 76.3413L19.2411 76.3413C19.1773 76.2431 19.1185 76.1082 19.0645 75.9364C19.0154 75.7695 18.9688 75.5806 18.9246 75.3696C18.8853 75.1586 18.8485 74.9475 18.8142 74.7365C18.7847 74.5255 18.7578 74.3341 18.7332 74.1624C18.6792 73.7943 18.5934 73.4729 18.4756 73.198C18.3578 72.9232 18.1983 72.7098 17.9971 72.5576C17.8008 72.4055 17.5554 72.3294 17.261 72.3294C16.834 72.3294 16.5077 72.484 16.282 72.7932C16.0611 73.1073 15.9507 73.5048 15.9507 73.9857ZM14 81.8879L25.3067 81.8879L25.3067 84.928L23.3339 84.928L23.3339 85.0458C24.0357 85.2519 24.5657 85.5979 24.9239 86.0837C25.2871 86.5696 25.4687 87.129 25.4687 87.7621C25.4687 87.9191 25.4589 88.0884 25.4392 88.27C25.4196 88.4516 25.3926 88.6111 25.3583 88.7485L22.5757 88.7485C22.6199 88.6012 22.6592 88.3976 22.6935 88.1375C22.7279 87.8774 22.745 87.6394 22.745 87.4235C22.745 86.9622 22.6444 86.5499 22.4432 86.1868C22.2469 85.8285 21.9721 85.5439 21.6188 85.3329C21.2655 85.1268 20.8581 85.0237 20.3968 85.0237L14 85.0237L14 81.8879Z" fill="white"/>
</svg>
